<svg width="220" height="220" viewBox="0 0 220 220" fill="none" xmlns="http://www.w3.org/2000/svg">
  <defs>
    <filter id="shadow" x="8" y="16" width="190" height="184" filterUnits="userSpaceOnUse">
      <feDropShadow dx="0" dy="14" stdDeviation="10" flood-color="#8F5B2E" flood-opacity="0.24"/>
    </filter>
    <radialGradient id="shell" cx="0" cy="0" r="1" gradientUnits="userSpaceOnUse" gradientTransform="translate(118 94) rotate(128) scale(104 90)">
      <stop offset="0" stop-color="#F7D59D"/>
      <stop offset="0.46" stop-color="#E4A059"/>
      <stop offset="1" stop-color="#B96D2D"/>
    </radialGradient>
    <linearGradient id="edge" x1="132" y1="42" x2="90" y2="172" gradientUnits="userSpaceOnUse">
      <stop stop-color="#8A5120"/>
      <stop offset="1" stop-color="#D08A50"/>
    </linearGradient>
  </defs>
  <g filter="url(#shadow)">
    <path d="M40 134C40 80 79 38 132 38C154 38 173 46 181 59C187 68 188 83 183 95C176 112 162 119 151 126C137 136 132 164 113 175C99 182 83 183 67 175C49 166 40 152 40 134Z" fill="url(#shell)"/>
    <path d="M146 55C132 73 123 88 114 102C100 123 78 132 53 130" stroke="#FFF4DD" stroke-opacity="0.48" stroke-width="9" stroke-linecap="round"/>
    <path d="M139 48C144 69 137 93 123 110" stroke="#B76B32" stroke-opacity="0.3" stroke-width="6" stroke-linecap="round"/>
    <path d="M147 73C136 92 132 112 129 134C124 156 113 171 96 179" stroke="url(#edge)" stroke-width="20" stroke-linecap="round"/>
    <path d="M150 76C138 94 133 113 130 133" stroke="#6F4019" stroke-opacity="0.42" stroke-width="6" stroke-linecap="round"/>
  </g>
</svg>
